# xmcd CD database file
#
# Track frame offsets:
#	150
#	16350
#	36107
#	54627
#	75380
#	92832
#	119907
#	142145
#	162335
#	182230
#	202660
#	221750
#	250605
#
# Disc length: 3572 seconds
#
# Revision: 0
# Processed by: cddbd v1.5.1PL0 Copyright (c) Steve Scherf et al.
# Submitted via: CDex 1.51
#
DISCID=b60df20d
DTITLE=Lifehouse - No Name Face
DYEAR=2001
DGENRE=Rock
TTITLE0=No Name Face
TTITLE1=Sick Cycle Carouse
TTITLE2=Unknown
TTITLE3=Somebody Else's Song
TTITLE4=Trying
TTITLE5=Only One
TTITLE6=Simon
TTITLE7=Cling And Clatter
TTITLE8=Breathing
TTITLE9=Quasimodo
TTITLE10=Somewhere In Between
TTITLE11=Everything
TTITLE12=Fairytales Sand Castles
EXTD=YEAR: 2001
EXTT0=
EXTT1=
EXTT2=
EXTT3=
EXTT4=
EXTT5=
EXTT6=
EXTT7=
EXTT8=
EXTT9=
EXTT10=
EXTT11=
EXTT12=
PLAYORDER=
